<?xml version="1.0" encoding="UTF-8"?>
<svg id="Layer_2" data-name="Layer 2" xmlns="http://www.w3.org/2000/svg" viewBox="0 0 19.82 19.82">
  <defs>
    <style>
      .cls-1 {
        fill: #fff;
      }
    </style>
  </defs>
  <g id="Layer_3" data-name="Layer 3">
    <path class="cls-1" d="M19.77,5.84c.03.8.04,2.15.04,4.07s-.02,3.27-.04,4.07c-.09,1.8-.63,3.19-1.61,4.18-.99.99-2.38,1.51-4.18,1.57-.8.06-2.15.09-4.07.09s-3.27-.03-4.07-.09c-1.8-.09-3.18-.62-4.16-1.59-.38-.35-.69-.77-.93-1.24-.24-.47-.41-.93-.51-1.37-.1-.44-.15-.96-.15-1.55-.06-.8-.09-2.15-.09-4.07s.03-3.29.09-4.11c.09-1.77.62-3.14,1.59-4.11C2.65.68,4.04.13,5.84.04c.8-.03,2.15-.04,4.07-.04s3.27.01,4.07.04c1.8.09,3.19.63,4.18,1.61.99.99,1.53,2.38,1.61,4.18ZM15.75,17.65c.91-.38,1.55-1.02,1.9-1.9.09-.24.16-.54.22-.91.06-.37.1-.81.13-1.33.03-.52.04-.94.04-1.26v-4.69c0-.32-.02-.74-.04-1.26-.03-.52-.07-.96-.13-1.33-.06-.37-.13-.67-.22-.91-.35-.91-.99-1.55-1.9-1.9-.24-.09-.54-.16-.91-.22-.37-.06-.81-.1-1.33-.13-.52-.03-.93-.04-1.24-.04h-4.71c-.32,0-.75.01-1.26.04-.52.03-.96.07-1.33.13-.37.06-.67.13-.91.22-.91.35-1.55.99-1.9,1.9-.09.24-.16.54-.22.91-.06.37-.1.81-.13,1.33-.03.52-.04.93-.04,1.24v4.25c0,.28,0,.64.02,1.08.01.44.04.82.07,1.13.03.31.07.63.13.95.06.32.12.59.18.8.38.91,1.02,1.55,1.9,1.9.24.09.54.16.91.22.37.06.81.1,1.33.13.52.03.93.04,1.24.04h4.71c.32,0,.74-.01,1.26-.04.52-.03.96-.07,1.33-.13.37-.06.67-.13.91-.22h0ZM6.3,6.3c.99-.99,2.19-1.48,3.6-1.48s2.62.49,3.61,1.48c.99.99,1.48,2.19,1.48,3.61s-.49,2.62-1.48,3.6c-.99.99-2.19,1.48-3.61,1.48s-2.62-.49-3.6-1.48c-.99-.99-1.48-2.19-1.48-3.6s.49-2.62,1.48-3.61ZM7.56,12.25c.65.65,1.43.97,2.34.97s1.7-.32,2.34-.97c.65-.65.97-1.43.97-2.34s-.32-1.7-.97-2.34c-.65-.65-1.43-.97-2.34-.97s-1.7.32-2.34.97c-.65.65-.97,1.43-.97,2.34s.32,1.69.97,2.34ZM16.03,3.78c.22.22.33.49.33.82s-.11.6-.33.84c-.22.24-.49.35-.82.35s-.6-.12-.84-.35c-.24-.24-.35-.52-.35-.84s.12-.6.35-.82c.24-.22.52-.33.84-.33s.6.11.82.33Z"/>
  </g>
</svg>