<?xml version="1.0" encoding="UTF-8"?>
<svg id="Layer_2" data-name="Layer 2" xmlns="http://www.w3.org/2000/svg" viewBox="0 0 19.82 19.82">
  <defs>
    <style>
      .cls-1 {
        fill: #fff;
      }
    </style>
  </defs>
  <g id="Layer_3" data-name="Layer 3">
    <path class="cls-1" d="M18.4,0c.38,0,.71.14,1,.42.28.28.42.61.42,1v16.99c0,.38-.14.72-.42,1-.28.28-.61.42-1,.42H1.42c-.38,0-.72-.14-1-.42-.28-.28-.42-.61-.42-1V1.42c0-.38.14-.72.42-1,.28-.28.61-.42,1-.42h16.99ZM3.32,5.73c.32.34.72.51,1.19.51s.88-.17,1.22-.51c.34-.34.51-.74.51-1.19s-.17-.86-.51-1.19c-.34-.34-.75-.51-1.22-.51s-.87.17-1.19.51c-.32.34-.49.74-.49,1.19s.16.86.49,1.19ZM5.97,16.99h.04V7.52h-2.96v9.47h2.92ZM16.99,16.99v-5.18c0-.71-.04-1.31-.13-1.81-.09-.5-.25-.97-.49-1.39-.24-.43-.6-.75-1.08-.97-.49-.22-1.08-.33-1.79-.33s-1.26.15-1.75.44-.83.65-1.04,1.06h-.04v-1.28h-2.83v9.47h2.96v-4.69c0-.74.12-1.33.35-1.77.24-.44.69-.66,1.37-.66.35,0,.65.07.88.22.24.15.39.37.46.66.07.3.13.55.15.77.03.22.04.51.04.86v4.6h2.92Z"/>
  </g>
</svg>